<?xml version="1.0" encoding="UTF-8"?>
<svg id="Layer_2" data-name="Layer 2" xmlns="http://www.w3.org/2000/svg" xmlns:xlink="http://www.w3.org/1999/xlink" viewBox="0 0 174.57 174.57">
  <defs>
    <style>
      .cls-1 {
        fill: #fff;
      }

      .cls-2 {
        fill: #222e61;
      }

      .cls-3 {
        fill: url(#linear-gradient);
      }

      .cls-4 {
        fill: #fbd504;
      }
    </style>
    <linearGradient id="linear-gradient" x1="2" y1="87.29" x2="172.57" y2="87.29" gradientUnits="userSpaceOnUse">
      <stop offset="0" stop-color="#23506a"/>
      <stop offset=".19" stop-color="#214366"/>
      <stop offset=".69" stop-color="#212e61"/>
      <stop offset=".85" stop-color="#212d61"/>
      <stop offset="1" stop-color="#44296f"/>
    </linearGradient>
  </defs>
  <g id="Layer_1-2" data-name="Layer 1">
    <g>
      <circle class="cls-3" cx="87.29" cy="87.29" r="85.29"/>
      <g>
        <path class="cls-4" d="m87.29,4c46,0,83.29,37.29,83.29,83.29s-37.29,83.29-83.29,83.29S4,133.28,4,87.29,41.29,4,87.29,4m0-4C39.16,0,0,39.16,0,87.29s39.16,87.29,87.29,87.29,87.29-39.16,87.29-87.29S135.41,0,87.29,0h0Z"/>
        <g>
          <g>
            <rect class="cls-1" x="28.43" y="63.01" width="117.71" height="47.65"/>
            <path class="cls-2" d="m146.64,111.15H27.93v-48.65h118.71v48.65Zm-117.71-1h116.71v-46.65H28.93v46.65Z"/>
          </g>
          <g>
            <path class="cls-1" d="m140.37,116.69H34.2c-3.19,0-5.78-2.59-5.78-5.78l58.86-28.95,58.86,28.95c0,3.19-2.59,5.78-5.78,5.78Z"/>
            <path class="cls-2" d="m140.37,117.19H34.2c-3.46,0-6.28-2.82-6.28-6.28v-.31l.28-.14,59.08-29.06.22.11,59.14,29.08v.31c0,3.46-2.82,6.28-6.28,6.28Zm-111.43-5.97c.16,2.77,2.46,4.97,5.27,4.97h106.16c2.81,0,5.11-2.2,5.27-4.97l-58.35-28.7-58.35,28.7Z"/>
          </g>
          <g>
            <path class="cls-1" d="m84.79,91.26l-56.36-27.62c0-3.18,2.58-5.76,5.76-5.76h106.19c3.18,0,5.76,2.58,5.76,5.76l-56.58,27.63c-1.51.74-3.27.73-4.77,0Z"/>
            <path class="cls-2" d="m87.18,92.32c-.89,0-1.78-.2-2.61-.61l-56.64-27.76v-.31c0-3.45,2.81-6.26,6.26-6.26h106.19c3.45,0,6.26,2.81,6.26,6.26v.31l-56.86,27.76c-.83.4-1.71.61-2.6.61Zm-2.17-1.51c1.38.67,2.95.67,4.33,0l56.29-27.49c-.16-2.76-2.46-4.95-5.25-4.95H34.19c-2.8,0-5.09,2.2-5.25,4.95l56.07,27.48Z"/>
          </g>
        </g>
        <path class="cls-2" d="m90.88,79.27c-1.34.6-2.5.8-4.08.8-3.7,0-6.96-2.65-6.96-7.03s3.3-8.5,8.34-8.5c3.93,0,6.74,2.7,6.74,6.45,0,3.26-1.83,5.31-4.24,5.31-1.05,0-1.81-.54-1.92-1.72h-.04c-.69,1.14-1.7,1.72-2.88,1.72-1.45,0-2.5-1.07-2.5-2.9,0-2.72,2.01-5.2,5.22-5.2.98,0,2.1.24,2.65.56l-.67,4.13c-.22,1.32-.07,1.92.56,1.94.96.02,2.16-1.21,2.16-3.77,0-2.9-1.87-5.15-5.33-5.15s-6.4,2.68-6.4,6.94c0,3.73,2.39,5.85,5.71,5.85,1.14,0,2.34-.25,3.24-.71l.4,1.29Zm-1.99-9.21c-.18-.04-.4-.09-.69-.09-1.47,0-2.63,1.45-2.63,3.17,0,.85.38,1.38,1.12,1.38.83,0,1.7-1.05,1.9-2.34l.31-2.12Z"/>
      </g>
    </g>
  </g>
</svg>