<?xml version="1.0" encoding="UTF-8"?>
<svg id="Layer_2" data-name="Layer 2" xmlns="http://www.w3.org/2000/svg" xmlns:xlink="http://www.w3.org/1999/xlink" viewBox="0 0 172.57 172.57">
  <defs>
    <style>
      .cls-1 {
        fill: #fff;
      }

      .cls-2 {
        fill: url(#linear-gradient);
      }

      .cls-3 {
        fill: #fbd504;
      }
    </style>
    <linearGradient id="linear-gradient" x1="1" y1="86.29" x2="171.57" y2="86.29" gradientUnits="userSpaceOnUse">
      <stop offset="0" stop-color="#23506a"/>
      <stop offset=".19" stop-color="#214366"/>
      <stop offset=".69" stop-color="#212e61"/>
      <stop offset=".85" stop-color="#212d61"/>
      <stop offset="1" stop-color="#44296f"/>
    </linearGradient>
  </defs>
  <g id="Layer_1-2" data-name="Layer 1">
    <g>
      <circle class="cls-2" cx="86.29" cy="86.29" r="85.29"/>
      <g>
        <path class="cls-1" d="m133.81,62.34c-3.63-.73-8.52-1.27-11.61-1.27-8.34,0-8.89,3.63-8.89,9.43v10.34h20.86l-1.81,21.4h-19.04v65.1h-26.11v-65.1h-13.42v-21.4h13.42v-13.24c0-18.13,8.52-28.29,29.92-28.29,7.44,0,12.88,1.09,19.95,2.54l-3.26,20.49Z"/>
        <path class="cls-3" d="m86.29,172.57C38.71,172.57,0,133.86,0,86.29S38.71,0,86.29,0s86.29,38.71,86.29,86.29-38.71,86.29-86.29,86.29Zm0-166.57C42.02,6,6,42.02,6,86.29s36.02,80.29,80.29,80.29,80.29-36.02,80.29-80.29S130.55,6,86.29,6Z"/>
      </g>
    </g>
  </g>
</svg>