<?xml version="1.0" encoding="UTF-8"?>
<svg id="Layer_2" data-name="Layer 2" xmlns="http://www.w3.org/2000/svg" xmlns:xlink="http://www.w3.org/1999/xlink" viewBox="0 0 172.57 172.57">
  <defs>
    <style>
      .cls-1 {
        fill: #fff;
      }

      .cls-2 {
        fill: url(#linear-gradient);
      }

      .cls-3 {
        fill: #fbd504;
      }
    </style>
    <linearGradient id="linear-gradient" x1="1" y1="86.29" x2="171.57" y2="86.29" gradientUnits="userSpaceOnUse">
      <stop offset="0" stop-color="#23506a"/>
      <stop offset=".19" stop-color="#214366"/>
      <stop offset=".69" stop-color="#212e61"/>
      <stop offset=".85" stop-color="#212d61"/>
      <stop offset="1" stop-color="#44296f"/>
    </linearGradient>
  </defs>
  <g id="Layer_1-2" data-name="Layer 1">
    <g>
      <circle class="cls-2" cx="86.29" cy="86.29" r="85.29"/>
      <g>
        <path class="cls-3" d="m86.29,172.57C38.71,172.57,0,133.86,0,86.29S38.71,0,86.29,0s86.29,38.71,86.29,86.29-38.71,86.29-86.29,86.29Zm0-166.57C42.02,6,6,42.02,6,86.29s36.02,80.29,80.29,80.29,80.29-36.02,80.29-80.29S130.55,6,86.29,6Z"/>
        <g>
          <path class="cls-1" d="m118.64,36.25H53.94c-9.76,0-17.69,7.93-17.69,17.69v64.7c0,9.75,7.93,17.69,17.69,17.69h64.7c9.75,0,17.69-7.93,17.69-17.69V53.94c0-9.75-7.93-17.69-17.69-17.69Zm12.34,82.39c0,6.8-5.53,12.34-12.34,12.34H53.94c-6.8,0-12.34-5.53-12.34-12.34V53.94c0-6.8,5.54-12.34,12.34-12.34h64.7c6.8,0,12.34,5.53,12.34,12.34v64.7Z"/>
          <path class="cls-1" d="m86.29,58.44c-15.35,0-27.84,12.49-27.84,27.84s12.49,27.84,27.84,27.84,27.84-12.49,27.84-27.84-12.49-27.84-27.84-27.84Zm0,50.33c-12.4,0-22.49-10.09-22.49-22.49s10.09-22.49,22.49-22.49,22.49,10.09,22.49,22.49-10.09,22.49-22.49,22.49Z"/>
          <path class="cls-1" d="m114.56,49.36c-3.25,0-5.88,2.63-5.88,5.88s2.63,5.88,5.88,5.88,5.88-2.63,5.88-5.88-2.63-5.88-5.88-5.88Z"/>
        </g>
      </g>
    </g>
  </g>
</svg>