<?xml version="1.0" encoding="UTF-8"?>
<svg id="Layer_2" data-name="Layer 2" xmlns="http://www.w3.org/2000/svg" xmlns:xlink="http://www.w3.org/1999/xlink" viewBox="0 0 172.57 172.57">
  <defs>
    <style>
      .cls-1 {
        fill: #fff;
      }

      .cls-2 {
        fill: url(#linear-gradient);
      }

      .cls-3 {
        fill: #fbd504;
      }
    </style>
    <linearGradient id="linear-gradient" x1="1" y1="86.29" x2="171.57" y2="86.29" gradientUnits="userSpaceOnUse">
      <stop offset="0" stop-color="#23506a"/>
      <stop offset=".19" stop-color="#214366"/>
      <stop offset=".69" stop-color="#212e61"/>
      <stop offset=".85" stop-color="#212d61"/>
      <stop offset="1" stop-color="#44296f"/>
    </linearGradient>
  </defs>
  <g id="Layer_1-2" data-name="Layer 1">
    <g>
      <circle class="cls-2" cx="86.29" cy="86.29" r="85.29"/>
      <g>
        <path class="cls-3" d="m86.29,172.57C38.71,172.57,0,133.86,0,86.29S38.71,0,86.29,0s86.29,38.71,86.29,86.29-38.71,86.29-86.29,86.29Zm0-166.57C42.02,6,6,42.02,6,86.29s36.02,80.29,80.29,80.29,80.29-36.02,80.29-80.29S130.55,6,86.29,6Z"/>
        <g>
          <path class="cls-1" d="m124.53,138.82H48.04c-7.88,0-14.3-6.41-14.3-14.3V48.05c0-7.88,6.41-14.3,14.3-14.3h76.48c7.88,0,14.3,6.41,14.3,14.3v76.48c0,7.88-6.41,14.3-14.3,14.3ZM48.04,38.75c-5.13,0-9.3,4.17-9.3,9.3v76.48c0,5.13,4.17,9.3,9.3,9.3h76.48c5.13,0,9.3-4.17,9.3-9.3V48.05c0-5.13-4.17-9.3-9.3-9.3H48.04Z"/>
          <g>
            <path class="cls-1" d="m48.08,62.26c0-5.19,3.79-8.58,9.38-8.58s9.38,3.39,9.38,8.58-3.79,8.58-9.38,8.58-9.38-3.39-9.38-8.58Zm.8,14.76h17.16v49.87h-17.16v-49.87Z"/>
            <path class="cls-1" d="m77.61,77.02h13.96l1.2,5.98h.4c3.99-3.79,8.98-7.18,15.76-7.18,10.97,0,15.56,7.98,15.56,20.35v30.72h-17.16v-28.53c0-6.38-1.6-7.98-4.99-7.98-3.19,0-4.99,1.4-7.58,3.79v32.72h-17.16v-49.87Z"/>
          </g>
        </g>
      </g>
    </g>
  </g>
</svg>