<?xml version="1.0" encoding="UTF-8"?>
<svg id="Layer_2" data-name="Layer 2" xmlns="http://www.w3.org/2000/svg" xmlns:xlink="http://www.w3.org/1999/xlink" viewBox="0 0 174.57 174.57">
  <defs>
    <style>
      .cls-1 {
        fill: #fff;
      }

      .cls-2 {
        fill: url(#linear-gradient);
      }

      .cls-3 {
        fill: #fbd504;
      }
    </style>
    <linearGradient id="linear-gradient" x1="2" y1="87.29" x2="172.57" y2="87.29" gradientUnits="userSpaceOnUse">
      <stop offset="0" stop-color="#23506a"/>
      <stop offset=".19" stop-color="#214366"/>
      <stop offset=".69" stop-color="#212e61"/>
      <stop offset=".85" stop-color="#212d61"/>
      <stop offset="1" stop-color="#44296f"/>
    </linearGradient>
  </defs>
  <g id="Layer_1-2" data-name="Layer 1">
    <g>
      <circle class="cls-2" cx="87.29" cy="87.29" r="85.29"/>
      <g>
        <path class="cls-3" d="m87.29,4c46,0,83.29,37.29,83.29,83.29s-37.29,83.29-83.29,83.29S4,133.28,4,87.29,41.29,4,87.29,4m0-4C39.16,0,0,39.16,0,87.29s39.16,87.29,87.29,87.29,87.29-39.16,87.29-87.29S135.41,0,87.29,0h0Z"/>
        <path class="cls-1" d="m142.34,112.63c-.48-2.04-1.21-3.99-2.16-5.8-.64-1.23-1.86-2.05-3.25-2.13,0,0-28.41-1.74-36.33-2.22-1.23-.07-2.37.6-2.9,1.71-1.09,2.31-2.83,5.99-2.83,5.99-.94,1.99-3.34,2.81-5.3,1.82-5.7-2.89-10.88-6.66-15.36-11.13-3.94-3.94-7.34-8.43-10.06-13.35-1.93-3.48-.59-7.86,2.98-9.61l.49-.24c2.87-1.4,4.4-4.58,3.71-7.7l-7.41-33.49c-.69-3.11-3.41-5.34-6.6-5.42-.22,0-.44,0-.67,0-13.41,0-24.36,10.5-25.08,23.73-.01.06-.01.13-.01.19-.02.4-.03.8-.03,1.2,0,.13,0,.25.01.38-.01.22-.01.43-.01.65,0,47.25,37.96,85.61,85.05,86.31.43.02.86.03,1.29.03s.86-.01,1.29-.03c13.27-.67,23.83-11.64,23.83-25.09,0-1.99-.23-3.92-.67-5.79Z"/>
      </g>
    </g>
  </g>
</svg>